<svg viewBox="0 0 175 180" fill="#C4C4C4" xmlns="http://www.w3.org/2000/svg">
<path d="M81.4013 1.87561C80.7643 1.944 78.785 2.187 77.042 2.358C66.5123 3.5298 54.6403 7.5672 45.1833 13.1202C40.2535 16.0182 34.4523 20.2608 33.7138 21.5028C32.473 23.607 33.2448 26.3322 35.3903 27.4014C37.0668 28.2294 38.3075 27.8154 41.5275 25.3656C51.4885 17.811 63.3605 12.8088 76.0358 10.7406C81.4013 9.8784 93.4745 9.8784 98.672 10.7748C111.081 12.8448 121.476 17.0532 131.371 24.021C135.63 27.0216 137.24 28.4022 141.533 32.7132C154.175 45.3042 161.52 59.9994 164.437 78.4188C165.309 83.7648 165.309 96.1488 164.47 101.702C162.458 114.741 157.561 126.986 150.285 137.093C147.971 140.335 147.602 141.302 148.138 142.889C148.943 145.442 151.559 146.545 153.839 145.339C155.75 144.338 160.983 136.094 164.771 128.162C176.475 103.601 176.04 74.2464 163.597 49.446C159.338 40.9608 154.912 34.785 147.835 27.5418C134.656 13.986 118.356 5.49899 100.112 2.6712C95.8545 2.01421 84.3185 1.5318 81.4013 1.87561Z" fill="#373F47"/>
<path d="M61.782 34.0596C55.2422 35.163 49.609 38.9232 46.3557 44.4078C42.567 50.859 42.231 58.8618 45.4842 65.6568C49.14 73.2456 56.3832 77.9022 64.6327 77.9022C72.849 77.9022 80.1605 73.2456 83.7812 65.6568C85.5242 62.0352 86.2295 58.5846 85.995 54.756C85.3247 43.4412 76.8722 34.749 65.8052 33.9552C64.5312 33.8868 62.7217 33.921 61.782 34.0596ZM69.2947 43.0272C72.8157 44.4078 75.264 46.8216 76.9405 50.5476C77.7455 52.272 77.8802 52.9632 77.8802 55.8252C77.847 58.446 77.7122 59.5152 77.0752 61.1028C76.0025 63.8964 73.2182 66.897 70.4007 68.3118C68.3217 69.381 67.9525 69.4494 64.6327 69.4494C61.313 69.4494 60.9437 69.381 58.8647 68.3118C56.0472 66.897 53.2647 63.8964 52.1902 61.1028C51.5532 59.5152 51.4185 58.4118 51.3852 55.8252C51.3852 52.8588 51.485 52.3404 52.458 50.2362C54.2692 46.269 57.925 43.2342 61.9482 42.372C63.9625 41.958 67.3487 42.2352 69.2947 43.0272Z" fill="#373F47"/>
<path d="M21.0017 34.6122C19.2587 35.5788 14.0927 43.5816 10.6732 50.5134C6.38048 59.3442 3.83248 67.7268 2.39048 78.075C1.48398 84.3516 1.55048 96.5286 2.52348 102.91C3.96548 112.327 6.34723 120.157 10.472 128.781C14.8645 137.992 19.4932 144.648 26.7365 152.098C33.7785 159.377 39.7827 163.93 48.0322 168.311C72.044 181.039 100.282 181.557 124.192 169.691C131.939 165.829 140.255 160.274 141.262 158.274C142.368 156.065 141.295 153.272 139.015 152.514C137.338 151.927 136.299 152.307 133.28 154.618C123.42 162.103 111.515 167.139 98.8382 169.209C93.4395 170.071 81.3995 170.071 76.202 169.175C63.7595 167.105 53.8667 163.138 44.0072 156.274C39.3452 153.032 37.8367 151.754 33.3427 147.236C20.734 134.68 13.3227 119.813 10.4387 101.531C9.56723 96.1848 9.56723 83.7666 10.4055 78.2478C12.418 65.2086 17.2812 52.9974 24.6242 42.7536C26.502 40.167 26.7365 39.6144 26.7365 38.2356C26.7365 36.441 26.1327 35.3718 24.724 34.614C23.5165 33.9552 22.1427 33.9552 21.0017 34.6122Z" fill="#373F47"/>
<path d="M101.187 47.8926C97.6325 48.582 95.0495 50.0652 92.5015 52.8948C86.632 59.4486 88.074 70.5906 95.4852 75.4884C101.622 79.5582 110.208 78.282 114.702 72.6588C120.403 65.5182 119.028 55.4454 111.683 50.238C108.901 48.2706 104.407 47.2716 101.187 47.8926ZM105.311 56.205C107.928 56.9304 110.208 60.0336 110.241 62.8272C110.274 70.209 100.112 72.2448 97.3297 65.4138C95.8877 61.7922 98 57.3426 101.724 56.169C103.066 55.7568 103.836 55.7568 105.311 56.205Z" fill="#373F47"/>
<path d="M44.5777 84.4902C42.0297 85.8006 42.1627 84.4902 42.1627 109.877C42.1627 135.61 41.9947 133.988 44.912 135.472L46.3872 136.197H80.6942C104.606 136.197 115.169 136.093 115.673 135.817C116.98 135.094 117.283 133.472 117.283 127.4C117.283 124.261 117.35 121.709 117.383 121.709C117.45 121.709 121.877 123.64 127.176 126.022C133.683 128.92 137.237 130.333 138.042 130.333C139.349 130.333 140.457 129.607 141.061 128.367C141.631 127.229 141.564 92.1816 140.994 91.0098C140.759 90.5274 140.021 89.8722 139.283 89.4924C137.639 88.6644 137.741 88.6302 126.506 93.7008L117.451 97.8066L117.283 91.6326L117.115 85.4226L116.175 84.5946L115.236 83.7666H80.6295C46.0197 83.7666 46.0197 83.7666 44.5777 84.4902ZM109.237 109.982V127.919H79.7247H50.2127V109.982V92.0448H79.7247H109.237V109.982ZM133.381 109.809V119.95L129.626 118.226C127.547 117.259 123.891 115.605 121.544 114.536L117.252 112.604L117.351 109.706L117.451 106.808L125.165 103.255C129.425 101.29 132.979 99.702 133.147 99.6678C133.282 99.6336 133.381 104.222 133.381 109.809Z" fill="#373F47"/>
<path d="M63.392 100.323C62.8215 100.669 62.1512 101.29 61.9832 101.668C61.446 102.668 61.5475 105.221 62.1512 106.117C63.3587 107.91 63.4252 107.91 80.227 107.91C97.1302 107.91 97.0952 107.91 98.3027 106.047C98.973 104.944 99.0062 102.425 98.3027 101.425C97.0952 99.6318 97.0287 99.6318 80.1587 99.6318C65.2032 99.6336 64.3982 99.6678 63.392 100.323Z" fill="#373F47"/>
</svg>
